<svg xmlns="http://www.w3.org/2000/svg" viewBox="0 0 489.2 430.5"><defs><style>.cls-1{fill:#c29834;}</style></defs><title>cargo-charter</title><g id="Capa_2" data-name="Capa 2"><g id="Capa_1-2" data-name="Capa 1"><path class="cls-1" d="M451.2,312.8a91.77,91.77,0,0,0-5.8-123.4,96.46,96.46,0,0,0-12.7-10.6V108.3a9.23,9.23,0,0,0-2.1-5.9L350.4,3.1A9.46,9.46,0,0,0,343.1,0H89.7a9.46,9.46,0,0,0-7.3,3.1L2.5,102l-.3.3A9.11,9.11,0,0,0,0,108.4V421.1a9.39,9.39,0,0,0,9.4,9.4H423.3c5.2,0,9.4-4.2,9.4-8.3V329.8c1.7-1.2,3.4-2.5,5.1-3.8l38.1,38.1,13.3-13.3-38-38ZM93.9,16.6h245L403.5,99H28.2L93.9,16.6ZM249.2,117.7v66.7H182.5V117.7Zm0,295H182.5V346h66.7Zm18.7,0V327.2H164.7v85.5H18.8v-295H164.7v84.5H267.9V117.8H413.8v51.1a91.72,91.72,0,1,0,0,170.9v72.9ZM432.1,305.9a73,73,0,1,1,0-103.2A73,73,0,0,1,432.1,305.9Z"/></g></g></svg>