<svg xmlns="http://www.w3.org/2000/svg" viewBox="0 0 512.16 512.16"><defs><style>.cls-1{fill:#c29834;}</style></defs><title>helicopter-charter</title><g id="Capa_2" data-name="Capa 2"><g id="Capa_1-2" data-name="Capa 1"><path class="cls-1" d="M503.63,495.1H461V482.3A21.12,21.12,0,0,0,439.63,461h-4.74a76.36,76.36,0,0,0-51.67-64.25,38.34,38.34,0,0,0,9.48-25.35V350L376.48,239.1a80.62,80.62,0,0,0-79.36-68.27H290.3V140.11a20.77,20.77,0,0,0-20.48-20.48H264.7V79.43L501.92,136.7h1.71c4.27,0,7.68-2.56,7.68-6.83,1.71-4.27-1.71-9.39-6-10.24L293.22,68.43l212.12-51.2c5.12-1.71,6.82-6.83,6-11.09s-6-6.83-10.24-6L255.74,59.38,10.4.16C6.14-.69,1.87,1.87.16,7-.69,11.26,1.87,15.52,7,17.23l211.69,51.1L6.14,119.63c-4.27.85-6.83,6-6,10.24A8.32,8.32,0,0,0,8.7,136.7h1.7L247.63,79.43v40.2h-5.12A20.77,20.77,0,0,0,222,140.11v30.72H215.2a80,80,0,0,0-79.36,68.27L119.63,349.18v22.18a38.29,38.29,0,0,0,9.48,25.35A76.34,76.34,0,0,0,77.44,461H72.7A21.13,21.13,0,0,0,51.36,482.3v12.8H8.7c-5.12,0-8.54,3.41-8.54,8.53s3.42,8.53,8.54,8.53H503.63c5.12,0,8.53-3.41,8.53-8.53S508.75,495.1,503.63,495.1ZM297.12,187.9c30.72,0,58,23,62.3,53.76l7.22,48.64h-64.4l28.16-28.16a8.45,8.45,0,0,0-11.94-11.95L278.35,290.3H264.7V187.9h32.42Zm-58-47.79a3.66,3.66,0,0,1,3.41-3.41h27.31a3.67,3.67,0,0,1,3.41,3.41v30.72H239.1V140.11ZM215.2,187.9h32.43V290.3H191.31l28.16-28.16a8.45,8.45,0,1,0-11.95-11.95l-40.1,40.11H145.69l7.22-48.64C158,210.08,183.63,187.9,215.2,187.9Zm-78.5,163,6.46-43.52h226l6.46,43.52v20.48A21.13,21.13,0,0,1,354.3,392.7H158a21.12,21.12,0,0,1-21.33-21.34V350.88ZM68.43,495.1V482.3A4,4,0,0,1,72.7,478H98.3a4,4,0,0,1,4.26,4.27v12.8Zm51.2,0V482.3A21.13,21.13,0,0,0,98.3,461H94.63a59.32,59.32,0,0,1,59.13-51.2v-.23a40.15,40.15,0,0,0,4.27.23H354.3a40,40,0,0,0,4.26-.23v.23A59.32,59.32,0,0,1,417.7,461H414A21.12,21.12,0,0,0,392.7,482.3v12.8Zm290.13,0V482.3A4,4,0,0,1,414,478h25.6a4,4,0,0,1,4.27,4.27v12.8Z"/></g></g></svg>