<svg xmlns="http://www.w3.org/2000/svg" viewBox="0 0 512 170.67"><title>limousine</title><g id="Capa_2" data-name="Capa 2"><g id="Capa_1-2" data-name="Capa 1"><rect x="119.47" y="119.47" width="273.07" height="17.07"/><path d="M481.27,57.47l-59.61-6L370.72,7.64A32.56,32.56,0,0,0,349.87,0H115.75A33.32,33.32,0,0,0,87.88,15L63.7,51.2H34.13A34.17,34.17,0,0,0,0,85.33V128a8.52,8.52,0,0,0,8.53,8.53h51.2V119.47H17.07V85.33A17.08,17.08,0,0,1,34.13,68.27H68.27a8.53,8.53,0,0,0,7.09-3.8l26.73-40.06a16.35,16.35,0,0,1,13.68-7.34H349.84a15.35,15.35,0,0,1,9.81,3.56L412.56,66.2a8.61,8.61,0,0,0,4.72,2l62.29,6.23a17,17,0,0,1,15.36,17.11v27.91H460.8v17.06h42.67A8.52,8.52,0,0,0,512,128V91.61A34,34,0,0,0,481.27,57.47Z"/><path d="M93.87,85.33A42.67,42.67,0,1,0,136.53,128,42.72,42.72,0,0,0,93.87,85.33Zm0,68.27a25.6,25.6,0,1,1,25.6-25.6A25.63,25.63,0,0,1,93.87,153.6Z"/><path d="M426.67,85.33A42.67,42.67,0,1,0,469.33,128,42.72,42.72,0,0,0,426.67,85.33Zm0,68.27a25.6,25.6,0,1,1,25.6-25.6A25.63,25.63,0,0,1,426.67,153.6Z"/><rect x="68.27" y="51.2" width="349.87" height="17.07"/><rect x="221.87" y="8.53" width="17.07" height="51.2"/><rect x="315.73" y="8.53" width="17.07" height="51.2"/><rect x="128" y="8.53" width="17.07" height="51.2"/><rect x="477.87" y="85.33" width="25.6" height="17.07"/><path d="M34.13,59.73v25.6H8.53V102.4H42.67a8.52,8.52,0,0,0,8.53-8.53V59.73Z"/></g></g></svg>