<svg xmlns="http://www.w3.org/2000/svg" viewBox="0 0 512 319.99"><title>meet-greet</title><g id="Capa_2" data-name="Capa 2"><g id="Layer_1" data-name="Layer 1"><path d="M404.27,219.41c-10-20.95-46-50-80.73-78.13-19.37-15.66-37.67-30.46-49.34-42.13A10.7,10.7,0,0,0,263,96.65c-7.19,2.61-11.63,4.61-15.12,6.17-5.34,2.39-7.13,3.2-14.32,3.92a10.66,10.66,0,0,0-7.81,4.68c-15.08,22.55-30.7,20.63-41.13,17.13-3.33-1.11-3.92-2.54-4.24-3.91-2.24-9.36,9-31.16,23.57-45.74,34.67-34.68,52.54-43.37,90.3-26.49,42.84,19.16,85.76,34.15,86.19,34.3a10.67,10.67,0,0,0,7-20.16C387.07,66.4,345,51.7,303,32.91,254.1,11,227.26,25.44,188.93,63.8c-14.59,14.59-34.41,44.12-29.29,65.77,2.19,9.22,8.68,16,18.32,19.22,24.17,8,46.23.34,62.66-21.46,6.78-1,10.47-2.58,16-5.08,2-.89,4.35-1.94,7.47-3.2,12.2,11.46,28.67,24.79,46,38.81C341.48,183.22,377,212,385,228.62c3.95,8.22-.29,13.57-3.17,16-4.23,3.63-10,4.78-13.14,2.58a10.67,10.67,0,0,0-16.67,9.92c.73,6.79-5.48,10.67-8.17,12-6.82,3.45-13.95,2.85-16.62.38a10.78,10.78,0,0,0-11.07-2.18,10.66,10.66,0,0,0-6.82,9,20.3,20.3,0,0,1-12.59,16.35c-3.27,1.23-8,2-12.25-1.9a10.79,10.79,0,0,0-9.75-2.48,10.63,10.63,0,0,0-7.48,6.72c-.41,1.07-1.33,3.63-11.31,3.63-7.1,0-19.88-4.8-26.13-8.94-7.49-4.93-54.45-40-95-73.92-5.7-4.8-15.55-15.08-24.26-24.17-7.72-8.07-14.78-15.38-18.41-18.45a10.67,10.67,0,1,0-13.78,16.29c3.31,2.8,9.71,9.56,16.77,16.92,9.51,9.94,19.35,20.23,26,25.77,39.73,33.26,87.47,69.17,97,75.42C226,312.74,242.9,320,256,320c10.52,0,18.6-2.41,24.21-7.12a33.23,33.23,0,0,0,24.26-.26,42,42,0,0,0,22.21-20.5,41.29,41.29,0,0,0,26.77-3.86c8.56-4.31,14.74-10.9,17.81-18.6a34.92,34.92,0,0,0,24.47-8.77C408,250.4,411.35,234.11,404.27,219.41Z"/><path d="M213.33,42.66h-96a10.67,10.67,0,0,0,0,21.33h96a10.67,10.67,0,1,0,0-21.33Z"/><path d="M435.52,196.71a10.64,10.64,0,0,0-14.81-2.9l-31.18,20.95a10.67,10.67,0,0,0,6,19.52,10.54,10.54,0,0,0,5.93-1.82l31.19-21A10.68,10.68,0,0,0,435.52,196.71Z"/><path d="M369.3,247.61c-7.64-6-41.79-41-62.91-63A10.67,10.67,0,1,0,291,199.38c5.48,5.71,53.84,56.12,65.08,65a10.66,10.66,0,0,0,6.6,2.28,10.79,10.79,0,0,0,8.4-4.07A10.66,10.66,0,0,0,369.3,247.61Z"/><path d="M326.68,269c-12.78-10.22-44.89-44.33-52.14-52.23a10.68,10.68,0,0,0-15.73,14.45c.39.4,38.7,41.77,54.53,54.44A10.67,10.67,0,0,0,326.68,269Z"/><path d="M284.22,290.49c-15.21-12.82-46.33-46-52.41-52.46a10.67,10.67,0,0,0-15.6,14.57c8.75,9.37,38.53,40.94,54.25,54.21a10.67,10.67,0,1,0,13.76-16.32Z"/><path d="M124.67,24.25C106.39,6.93,33.28,1.32,11.31,0A10.66,10.66,0,0,0,0,10.66v192a10.67,10.67,0,0,0,10.67,10.67h64A10.66,10.66,0,0,0,84.8,206C86.36,201.19,123.12,88.38,128,32.91A10.61,10.61,0,0,0,124.67,24.25ZM66.88,192H21.33V22.09c34.29,2.71,71.28,8.6,84.72,15.13C100.39,83.94,74.82,167,66.88,192Z"/><path d="M501.33,21.33c-83.75,0-130.22,21.44-132.16,22.33a10.59,10.59,0,0,0-5.69,6.64A10.73,10.73,0,0,0,364.65,59c13.18,21.23,54.46,139.11,62.4,167.87a10.66,10.66,0,0,0,10.28,7.83h64A10.67,10.67,0,0,0,512,224V32A10.65,10.65,0,0,0,501.33,21.33Zm-10.66,192H445.31C435.2,180.39,405.33,94.5,388.67,59c16.28-5.52,51.25-15,102-16.21Z"/></g></g></svg>