<svg xmlns="http://www.w3.org/2000/svg" viewBox="0 0 372.15 512"><title>private-travel</title><g id="Capa_2" data-name="Capa 2"><g id="Layer_1" data-name="Layer 1"><path d="M329,355.4h0a82.56,82.56,0,0,0-15.92-8.18l-46.28-19.28-32.62-21.53a7.28,7.28,0,0,0-1-.54v-14a85.12,85.12,0,0,0,46.34-64.53A38.66,38.66,0,0,0,305,162.77V113.26A113.38,113.38,0,0,0,191.74,0H183A113.38,113.38,0,0,0,69.72,113.26v49a38.65,38.65,0,0,0,24.89,65.17A85.15,85.15,0,0,0,141,291.91v13l-34,22.44a8,8,0,0,0-1.37.43L59,347.22a90.81,90.81,0,0,0-29.58,18.91C16,378.82,0,401.66,0,438.38v65.48A8.14,8.14,0,0,0,8.13,512h96a8.13,8.13,0,0,0,0-16.26h-25V435.4a8.13,8.13,0,0,0-16.26,0v60.34H16.26V438.38c0-58.56,46.34-75.19,48.28-75.86.19-.06.37-.13.54-.2l38.77-16.16,41.9,149.58H129.59a8.13,8.13,0,0,0,0,16.26H364a8.15,8.15,0,0,0,8.13-8.15V438.38C372.15,390.54,345.14,365.86,329,355.4Zm-75.32-16.65-24.49,50.33-30.37-22.36L231,333.39a8.1,8.1,0,0,0,2.2-6.69,8.76,8.76,0,0,0,.07-1v-.43Zm-49.39,52.18-6.39,17H176l-7.19-17.15,17.64-13ZM157.09,327a7.64,7.64,0,0,0,.12-1.36V309.42h0V298a84.7,84.7,0,0,0,21.55,2.78h16.67A84.7,84.7,0,0,0,217,298v26.43l-30.26,31.42Zm141.77-138.2a22.45,22.45,0,0,1-18.49,22.06V166.76A22.47,22.47,0,0,1,298.86,188.83Zm-205,22.06a22.41,22.41,0,0,1,0-44.13ZM102,142.32h0c-.28,0-.56,0-.83,0l-.25,0c-.19,0-.37,0-.55.09s-.23.06-.35.09a3.39,3.39,0,0,0-.43.11l-.39.14-.36.13-.43.21-.28.13-.41.25-.26.16c-.13.08-.25.18-.37.27l-.25.19a3,3,0,0,0-.32.29l-.26.23c-.1.1-.19.21-.28.31l-.25.27-.24.32-.23.31a3.37,3.37,0,0,0-.19.32,4.05,4.05,0,0,0-.21.35,3.18,3.18,0,0,0-.16.32l-.19.39-.12.32-.15.42-.09.34c0,.14-.08.29-.11.44s0,.24-.06.36,0,.29-.07.44,0,.26,0,.38,0,.24,0,.35A38.6,38.6,0,0,0,86,152V113.26a97.1,97.1,0,0,1,97-97h8.76a97.1,97.1,0,0,1,97,97v38.9a38,38,0,0,0-8.37-1.82v-.1c0-.18,0-.36,0-.54s0-.21,0-.32,0-.31-.07-.46-.06-.26-.09-.38l-.09-.38-.15-.42a2.83,2.83,0,0,0-.11-.31c-.06-.15-.13-.3-.19-.44s-.09-.18-.13-.27l-.24-.42a2.26,2.26,0,0,0-.16-.26c-.08-.13-.17-.25-.26-.37a2.55,2.55,0,0,0-.21-.28l-.26-.31c-.08-.1-.17-.19-.26-.29l-.26-.25-.32-.29-.27-.21-.35-.26-.3-.2-.36-.22-.36-.19-.34-.16a4.7,4.7,0,0,0-.45-.17l-.29-.11c-.17-.06-.34-.1-.51-.15l-.22-.06c-31.81-7.23-41.41-47.3-41.5-47.69a8.13,8.13,0,0,0-14.51-3c-36.16,50-114.76,50.46-116,50.46Zm8.09,73.56V158.3c20.79-1.28,76-8.2,111.52-45.38,6.13,14.42,18.82,35.47,42.53,43.65v59.31a68.78,68.78,0,0,1-68.69,68.69H178.76A68.78,68.78,0,0,1,110.07,215.88ZM141,324.44v1.23a8.08,8.08,0,0,0,.38,2.47,8.14,8.14,0,0,0,2.07,8.27l31,30.14-30.61,22.53-24.48-50.33ZM154.32,466.1l-15.94-56.92c.13,0,.25.09.38.12a8.08,8.08,0,0,0,6.77-1.35l9.85-7.25,6.85,16.37ZM166,495.74l11.54-71.54h19.09l11.54,71.54Zm45.92-78.83,6-16,9.53,7a8.06,8.06,0,0,0,6.76,1.35,8.34,8.34,0,0,0,1.91-.75l-16.2,57.86Zm144,78.83h-46.6V435.4a8.13,8.13,0,0,0-16.25,0v60.34H228.58L270.25,347l36.82,15.35.51.19a64.8,64.8,0,0,1,12.6,6.53h0c16.29,10.57,35.71,31.19,35.71,69.34Z"/><path d="M196.6,223.3a8.13,8.13,0,0,0,0-16.26h-6V188.22a8.13,8.13,0,1,0-16.25,0v26.95a8.12,8.12,0,0,0,8.12,8.13Z"/></g></g></svg>